<?xml version="1.0" encoding="utf-8"?>
<!-- Generator: Adobe Illustrator 26.0.3, SVG Export Plug-In . SVG Version: 6.00 Build 0)  -->
<svg version="1.1" id="Layer_1" xmlns="http://www.w3.org/2000/svg" xmlns:xlink="http://www.w3.org/1999/xlink" x="0px" y="0px"
	 viewBox="0 0 24 24" style="enable-background:new 0 0 24 24;" xml:space="preserve">
<style type="text/css">
	.st0{fill:#0E121A;stroke:#6D435A;stroke-linecap:round;stroke-linejoin:round;}
</style>
<path class="st0" d="M19.4,7.8c0,0.3,0.1,0.6,0.3,0.9l1.6,1.6c0.5,0.5,0.7,1.1,0.7,1.7s-0.2,1.2-0.7,1.7l-1.6,1.6
	c-0.2,0.2-0.5,0.3-0.8,0.3c-0.5-0.1-0.8-0.5-1-0.9c-0.5-1.3-1.9-2-3.2-1.5c-1.3,0.5-2,1.9-1.5,3.2c0.3,0.7,0.8,1.2,1.5,1.5
	c0.4,0.2,0.9,0.5,0.9,1c0,0.3-0.1,0.6-0.3,0.8l-1.6,1.6C13.3,21.7,12.6,22,12,22c-0.6,0-1.3-0.3-1.7-0.7l-1.6-1.6
	c-0.2-0.2-0.6-0.3-0.9-0.3c-0.5,0.1-0.8,0.5-1,1c-0.5,1.3-2,1.9-3.2,1.4s-1.9-2-1.4-3.2c0.3-0.7,0.8-1.2,1.4-1.4
	c0.5-0.2,0.9-0.5,1-1c0-0.3-0.1-0.6-0.3-0.9l-1.6-1.6C2.3,13.3,2,12.6,2,12c0-0.6,0.2-1.2,0.7-1.7l1.5-1.5c0.2-0.2,0.6-0.4,0.9-0.3
	C5.7,8.5,6,9,6.2,9.5c0.5,1.3,2,1.9,3.3,1.4c1.3-0.5,1.9-2,1.4-3.3C10.6,7,10.1,6.5,9.5,6.2C9,6,8.5,5.7,8.5,5.1
	C8.4,4.8,8.5,4.5,8.8,4.2l1.5-1.5C10.7,2.3,11.4,2,12,2c0.6,0,1.2,0.2,1.7,0.7l1.6,1.6c0.2,0.2,0.6,0.3,0.9,0.3c0.5-0.1,0.8-0.5,1-1
	c0.5-1.3,2-1.9,3.2-1.4c1.3,0.5,1.9,2,1.4,3.2c-0.3,0.7-0.8,1.2-1.4,1.4C19.9,7,19.5,7.4,19.4,7.8L19.4,7.8z"/>
</svg>
